<?xml version="1.0" standalone="no"?>
<!DOCTYPE svg PUBLIC "-//W3C//DTD SVG 20010904//EN"
 "http://www.w3.org/TR/2001/REC-SVG-20010904/DTD/svg10.dtd">
<svg version="1.0" xmlns="http://www.w3.org/2000/svg"
 width="48.000000pt" height="48.000000pt" viewBox="0 0 48.000000 48.000000"
 preserveAspectRatio="xMidYMid meet">

<g transform="translate(0.000000,48.000000) scale(0.100000,-0.100000)"
fill="#000000" stroke="none">
<path d="M120 245 c0 -168 1 -175 20 -175 18 0 20 7 20 80 0 44 3 80 8 80 4 0
37 -36 75 -80 51 -60 73 -80 92 -80 14 0 25 2 25 4 0 2 -34 41 -75 87 -41 46
-75 88 -75 92 0 5 21 32 48 60 26 29 58 64 71 80 l24 27 -25 0 c-19 0 -40 -18
-88 -75 -35 -41 -67 -75 -71 -75 -5 0 -9 34 -9 75 0 68 -2 75 -20 75 -19 0
-20 -7 -20 -175z"/>
</g>
</svg>
